<?xml version="1.0" encoding="UTF-8" standalone="no"?>
<!-- Created with Inkscape (http://www.inkscape.org/) -->

<svg
   width="451.008"
   height="195"
   viewBox="0 0 119.32994 51.593723"
   version="1.1"
   id="svg5"
   inkscape:version="1.2.2 (b0a8486541, 2022-12-01)"
   sodipodi:docname="ircat-invert.svg"
   xmlns:inkscape="http://www.inkscape.org/namespaces/inkscape"
   xmlns:sodipodi="http://sodipodi.sourceforge.net/DTD/sodipodi-0.dtd"
   xmlns="http://www.w3.org/2000/svg"
   xmlns:svg="http://www.w3.org/2000/svg">
  <sodipodi:namedview
     id="namedview7"
     pagecolor="#ffffff"
     bordercolor="#000000"
     borderopacity="0.25"
     inkscape:showpageshadow="2"
     inkscape:pageopacity="0.0"
     inkscape:pagecheckerboard="0"
     inkscape:deskcolor="#d1d1d1"
     inkscape:document-units="mm"
     showgrid="false"
     inkscape:zoom="1.078437"
     inkscape:cx="239.69874"
     inkscape:cy="48.681562"
     inkscape:window-width="1920"
     inkscape:window-height="1020"
     inkscape:window-x="0"
     inkscape:window-y="0"
     inkscape:window-maximized="1"
     inkscape:current-layer="layer1" />
  <defs
     id="defs2">
    <inkscape:path-effect
       effect="fillet_chamfer"
       id="path-effect1896"
       is_visible="true"
       lpeversion="1"
       nodesatellites_param="F,0,0,1,0,3.96875,0,1 @ F,0,0,1,0,3.96875,0,1 @ F,0,0,1,0,3.96875,0,1 @ F,0,0,1,0,3.96875,0,1"
       unit="px"
       method="auto"
       mode="F"
       radius="15"
       chamfer_steps="1"
       flexible="false"
       use_knot_distance="true"
       apply_no_radius="true"
       apply_with_radius="true"
       only_selected="false"
       hide_knots="false" />
  </defs>
  <g
     inkscape:label="Layer 1"
     inkscape:groupmode="layer"
     id="layer1">
    <g
       aria-label="Codename"
       id="text296"
       style="font-size:25.4px;font-family:hack;-inkscape-font-specification:hack;stroke-width:0.264584;fill:#ffffff;fill-opacity:1">
      <path
         d="m 7.4786098,19.657689 q -1.7363281,0 -3.137793,-0.620117 Q 2.9517544,18.417455 1.9595669,17.140014 -3.4114346e-6,14.597533 -3.4114346e-6,10.070678 q 0,-3.0261721 0.8929687414346,-5.1717776 0.89296877,-2.1580077 2.56728507,-3.2990233 1.6867188,-1.153418 4.0183594,-1.153418 1.2030273,0 2.1580077,0.23564453 Q 10.604,0.91774816 11.583785,1.4634513 V 4.0307364 Q 10.678414,3.2617911 9.6118129,2.8773184 8.532809,2.4804434 7.4662074,2.4804434 q -2.418457,0 -3.6338867,1.8851563 -1.2154296,1.8851562 -1.2154296,5.6926753 0,7.56543 4.874121,7.56543 1.0666015,0 2.1456054,-0.396875 1.0417965,-0.396875 1.9471675,-1.153418 v 2.567285 Q 10.604,19.149193 9.6242152,19.409642 8.6320277,19.657689 7.4786098,19.657689 Z"
         id="path2149"
         style="fill:#ffffff;fill-opacity:1" />
      <path
         d="m 21.232809,19.657689 q -2.902149,0 -4.440039,-1.872754 -1.525489,-1.885156 -1.525489,-5.407421 0,-3.5346683 1.537891,-5.4198245 1.537891,-1.8851563 4.415234,-1.8851563 2.877344,0 4.402832,1.8851563 1.537891,1.8727538 1.537891,5.4322265 0,3.534668 -1.525488,5.407422 -1.525489,1.860351 -4.402832,1.860351 z m -0.0124,-1.934765 q 1.699121,0 2.604492,-1.389063 0.917774,-1.389062 0.917774,-3.981152 0,-2.5796875 -0.917774,-3.9563477 -0.905371,-1.3890625 -2.604492,-1.3890625 -1.711523,0 -2.629297,1.3890625 -0.905371,1.3766602 -0.905371,3.9563477 0,2.59209 0.917774,3.981152 0.917773,1.389063 2.616894,1.389063 z"
         id="path2151"
         style="fill:#ffffff;fill-opacity:1" />
      <path
         d="m 35.731148,19.657689 q -1.513086,0 -2.54248,-0.644922 -1.029395,-0.644921 -1.649512,-1.723925 -0.607715,-1.079004 -0.880566,-2.38125 -0.272852,-1.314649 -0.272852,-2.641699 0,-3.3238286 1.451074,-5.2585942 1.463477,-1.9347656 3.943945,-1.9347656 1.21543,0 2.182813,0.5208985 0.967383,0.5084961 1.537891,1.5875 V -2.5268644e-5 h 2.282031 V 19.298021 h -2.058789 l -0.223242,-1.74873 q -1.227832,2.108398 -3.770313,2.108398 z m 0.409277,-1.934765 q 1.079004,0 1.736329,-0.508496 0.669726,-0.508496 1.016992,-1.314649 0.359668,-0.818554 0.483691,-1.74873 0.124024,-0.942578 0.124024,-1.79834 0,-0.843359 -0.124024,-1.773535 Q 39.253414,9.648998 38.893746,8.8428457 38.54648,8.024291 37.876754,7.5157949 37.219429,7.0072988 36.140425,7.0072988 q -1.091406,0 -1.761132,0.5084961 -0.657325,0.5084961 -1.00459,1.3270508 -0.334863,0.8061523 -0.458887,1.7363283 -0.124023,0.930176 -0.124023,1.773535 0,0.843359 0.124023,1.785937 0.124024,0.930176 0.458887,1.748731 0.347265,0.806152 1.00459,1.327051 0.669726,0.508496 1.761132,0.508496 z"
         id="path2153"
         style="fill:#ffffff;fill-opacity:1" />
      <path
         d="m 52.561126,19.657689 q -3.212207,0 -5.047754,-1.922363 -1.823144,-1.934766 -1.823144,-5.270996 0,-2.071191 0.719336,-3.7455077 0.731738,-1.6743164 2.158008,-2.6541016 1.438671,-0.9921875 3.54707,-0.9921875 2.778125,0 4.303613,1.7859375 1.537891,1.7735352 1.537891,4.9237303 v 1.116211 h -9.884668 v 0.07441 q 0,2.17041 1.141015,3.460254 1.141016,1.289844 3.373438,1.289844 1.289844,0 2.492871,-0.409278 1.21543,-0.409277 2.344043,-0.992187 v 2.269629 q -1.178223,0.483691 -2.393652,0.768945 -1.203028,0.297656 -2.468067,0.297656 z m 3.112988,-8.545214 q 0,-1.1534184 -0.347265,-2.0835942 -0.347266,-0.9301757 -1.116211,-1.4758788 -0.756543,-0.5457032 -2.00918,-0.5457032 -1.265039,0 -2.1208,0.5581055 -0.84336,0.5457031 -1.327051,1.4758789 -0.471289,0.9301758 -0.595313,2.0711918 z"
         id="path2155"
         style="fill:#ffffff;fill-opacity:1" />
      <path
         d="m 61.862886,5.4073965 h 2.058789 l 0.223242,2.0835937 q 1.252637,-2.418457 4.080371,-2.418457 4.254004,0 4.254004,5.6182618 v 8.607226 h -2.294434 v -8.607226 q 0,-1.872754 -0.657324,-2.7533204 -0.644922,-0.8805664 -2.00918,-0.8805664 -1.624707,0 -2.505273,1.153418 -0.868164,1.1410156 -0.868164,3.2370118 v 7.850683 h -2.282031 z"
         id="path2157"
         style="fill:#ffffff;fill-opacity:1" />
      <path
         d="m 81.049313,19.657689 q -2.00918,0 -3.323828,-1.153418 -1.302246,-1.16582 -1.302246,-3.33623 0,-1.79834 0.868164,-2.80293 0.868164,-1.016992 2.269629,-1.426269 1.401465,-0.409278 2.988964,-0.409278 h 3.063379 v -0.359668 q 0,-1.7735347 -0.905371,-2.4680659 -0.892968,-0.6945313 -2.517675,-0.6945313 -1.26504,0 -2.480469,0.3472657 -1.21543,0.3472656 -2.269629,0.9673828 V 6.039916 q 1.141016,-0.4216796 2.306836,-0.6945312 1.16582,-0.2728516 2.38125,-0.2728516 1.240234,0 2.406054,0.3472657 1.178223,0.3348632 2.033985,1.1162109 0.855762,0.7689453 1.141015,2.0711914 0.198438,0.9177734 0.198438,2.7657228 v 2.840136 q 0,1.165821 0.124023,2.579688 0.136426,1.413867 0.607715,2.505273 h -2.294433 q -0.21084,-0.483691 -0.334864,-1.029394 -0.124023,-0.558106 -0.198437,-1.079004 -0.731738,1.252637 -2.033984,1.860351 -1.289844,0.607715 -2.728516,0.607715 z m 0.558105,-1.909961 q 1.413868,0 2.294434,-0.694531 0.892969,-0.694531 1.302246,-1.810742 0.409277,-1.128613 0.409277,-2.418457 v -0.508496 h -2.889746 q -0.967382,0 -1.897558,0.223242 -0.917774,0.21084 -1.525489,0.818555 -0.595312,0.607715 -0.595312,1.773535 0,1.314648 0.806152,1.971973 0.806153,0.644921 2.095996,0.644921 z"
         id="path2159"
         style="fill:#ffffff;fill-opacity:1" />
      <path
         d="m 91.380459,5.4073965 h 1.872754 l 0.198438,1.190625 q 0.843359,-1.5254883 2.492871,-1.5254883 1.773535,0 2.468066,1.7487305 0.843359,-1.7487305 2.654102,-1.7487305 1.68672,0 2.35644,1.2650391 0.68213,1.3022461 0.68213,4.9113277 v 8.049121 h -2.08359 v -7.949902 q 0,-1.5626952 -0.0868,-2.4184569 -0.0744,-0.8557617 -0.24804,-1.265039 -0.31006,-0.6821289 -1.22784,-0.6821289 -0.942573,0 -1.302241,0.7441406 -0.21084,0.434082 -0.297657,1.265039 -0.08682,0.830957 -0.08682,2.3564452 v 7.949902 h -2.083594 v -7.949902 q 0,-1.5006835 -0.08682,-2.3812499 -0.08682,-0.8805664 -0.272852,-1.2898437 -0.334863,-0.6945312 -1.252636,-0.6945312 -0.917774,0 -1.252637,0.7317382 -0.198438,0.4216797 -0.285254,1.2898438 -0.08682,0.8557617 -0.08682,2.3440428 v 7.949902 h -2.071192 z"
         id="path2161"
         style="fill:#ffffff;fill-opacity:1" />
      <path
         d="m 113.72948,19.657689 q -3.2122,0 -5.04775,-1.922363 -1.82314,-1.934766 -1.82314,-5.270996 0,-2.071191 0.71933,-3.7455077 0.73174,-1.6743164 2.15801,-2.6541016 1.43867,-0.9921875 3.54707,-0.9921875 2.77812,0 4.30361,1.7859375 1.53789,1.7735352 1.53789,4.9237303 v 1.116211 h -9.88466 v 0.07441 q 0,2.17041 1.14101,3.460254 1.14102,1.289844 3.37344,1.289844 1.28984,0 2.49287,-0.409278 1.21543,-0.409277 2.34404,-0.992187 v 2.269629 q -1.17822,0.483691 -2.39365,0.768945 -1.20303,0.297656 -2.46807,0.297656 z m 3.11299,-8.545214 q 0,-1.1534184 -0.34726,-2.0835942 -0.34727,-0.9301757 -1.11621,-1.4758788 -0.75655,-0.5457032 -2.00918,-0.5457032 -1.26504,0 -2.1208,0.5581055 -0.84336,0.5457031 -1.32706,1.4758789 -0.47128,0.9301758 -0.59531,2.0711918 z"
         id="path2163"
         style="fill:#ffffff;fill-opacity:1" />
    </g>
    <g
       aria-label="IR"
       id="text560"
       style="font-size:25.4002px;font-family:hack;-inkscape-font-specification:hack;stroke-width:0.264585;fill:#ffffff;fill-opacity:1">
      <path
         d="m 10.64182,43.460242 h 3.881964 V 29.160227 H 10.64182 v -2.108415 h 10.281624 v 2.108415 H 17.04148 v 14.300015 h 3.881964 v 2.108415 H 10.64182 Z"
         id="path2144"
         style="fill:#ffffff;fill-opacity:1" />
      <path
         d="m 25.214689,27.051812 h 5.159416 q 3.063403,0 4.67572,1.376671 1.62472,1.389073 1.62472,3.931574 0,0.979793 -0.248049,1.723939 -0.248049,0.731744 -0.744146,1.314659 -0.979793,1.165829 -2.815354,1.426281 1.004597,0.248049 1.649524,0.930183 0.347269,0.359671 0.744147,1.017 0.40928,0.644927 0.954988,1.736342 l 2.517695,5.060196 h -2.691329 l -2.207635,-4.67572 q -0.483695,-1.029403 -0.917781,-1.661928 -0.421683,-0.632524 -0.793756,-0.91778 -0.384476,-0.297659 -0.905378,-0.434086 -0.5085,-0.136427 -1.091415,-0.136427 h -2.393671 v 7.825941 h -2.517696 z m 5.258635,8.632099 q 1.798354,0 2.678928,-0.806159 0.880573,-0.806158 0.880573,-2.44328 0,-1.62472 -0.930183,-2.480489 -0.446488,-0.396878 -1.128622,-0.620122 -0.669732,-0.223244 -1.599915,-0.223244 h -2.64172 v 6.573294 z"
         id="path2146"
         style="fill:#ffffff;fill-opacity:1" />
    </g>
    <path
       id="rect1844"
       style="fill:#00acff;stroke-width:0.319668"
       inkscape:label="rect614"
       d="m 47.334503,23.751845 c -2.64403,0 -4.787474,2.143445 -4.787474,4.787474 v 15.541834 c 0,2.644029 2.143444,4.787473 4.787474,4.787473 H 96.93846 c 2.64403,0 4.78735,-2.143444 4.78747,-4.787473 l 10e-4,-20.329308 c 0,0 -46.374061,0.141189 -54.392677,0 z m 54.392677,0 v 12.558391 l 13.61188,-12.558391 z" />
    <g
       aria-label="Cat!"
       id="text2131"
       style="font-size:25.4002px;font-family:hack;-inkscape-font-specification:hack;fill:#ffffff;stroke-width:0.265">
      <path
         d="m 52.982919,45.723688 q -1.736342,0 -3.137817,-0.620122 -1.389074,-0.620122 -2.381269,-1.897573 -1.959586,-2.542501 -1.959586,-7.069392 0,-3.026196 0.892976,-5.171818 0.892976,-2.158025 2.567305,-3.299049 1.686732,-1.153427 4.018391,-1.153427 1.203037,0 2.158025,0.235646 0.96739,0.235646 1.947183,0.781354 v 2.567305 q -0.905378,-0.768951 -1.971988,-1.153427 -1.079012,-0.396878 -2.145622,-0.396878 -2.418476,0 -3.633916,1.885171 -1.215439,1.885171 -1.215439,5.692721 0,7.565489 4.87416,7.565489 1.06661,0 2.145622,-0.396878 1.041805,-0.396878 1.947183,-1.153427 v 2.567305 q -0.979793,0.5085 -1.959585,0.768951 -0.992196,0.248049 -2.145623,0.248049 z"
         style="stroke-width:0.265002"
         id="path2135" />
      <path
         d="m 66.387776,31.520909 q 2.48922,0 3.683029,1.092208 1.193809,1.092209 1.193809,3.479828 v 9.271072 h -1.625612 l -0.431804,-1.930415 h -0.101601 q -0.889007,1.117609 -1.879614,1.651013 -0.965208,0.533404 -2.692422,0.533404 -1.854214,0 -3.073424,-0.965207 -1.219209,-0.990608 -1.219209,-3.073424 0,-2.032016 1.600212,-3.124225 1.600213,-1.117609 4.927639,-1.219209 l 2.311418,-0.0762 v -0.812806 q 0,-1.701814 -0.736606,-2.362219 -0.736605,-0.660405 -2.082816,-0.660405 -1.066808,0 -2.032016,0.330202 -0.965208,0.304803 -1.803414,0.711206 l -0.685806,-1.676413 q 0.889007,-0.482604 2.108217,-0.812807 1.21921,-0.355602 2.54002,-0.355602 z m 0.660405,7.264457 q -2.54002,0.101601 -3.530628,0.812806 -0.965207,0.711206 -0.965207,2.006616 0,1.143009 0.685805,1.676413 0.711206,0.533404 1.803414,0.533404 1.727214,0 2.870223,-0.939807 1.143009,-0.965208 1.143009,-2.946423 v -1.21921 z"
         style="font-family:sans-serif;-inkscape-font-specification:sans-serif"
         id="path2137" />
      <path
         d="m 83.330822,45.413627 q -2.554903,0 -3.621513,-1.029402 -1.054207,-1.041805 -1.054207,-3.547099 v -7.590294 h -3.70833 v -1.773549 h 3.70833 v -3.633915 l 2.282049,-0.992195 v 4.62611 h 5.18422 v 1.773549 h -5.18422 v 7.590294 q 0,1.525501 0.582915,2.145623 0.582914,0.607719 2.034,0.607719 h 2.567305 v 1.823159 z"
         style="stroke-width:0.265002"
         id="path2139" />
      <path
         d="M 94.579836,32.304247 V 26.78516 h 3.286647 v 5.519087 l -0.830964,7.032184 h -1.500695 z m 1.67433,13.803917 q -0.855769,0 -1.438684,-0.595317 -0.570512,-0.570513 -0.570512,-1.550305 0,-0.967391 0.570512,-1.537903 0.582915,-0.582915 1.438684,-0.582915 0.855768,0 1.438683,0.582915 0.570512,0.570512 0.570512,1.537903 0,0.979792 -0.570512,1.550305 -0.570513,0.595317 -1.438683,0.595317 z"
         style="stroke-width:0.265002"
         id="path2141" />
    </g>
  </g>
</svg>
